<svg  viewBox="0 0 64 64"><path d=" M 13.714 36.364 L 4.571 36.364 C 2.047 36.364 0 38.318 0 40.727 L 0 49.455 C 0 51.864 2.047 53.818 4.571 53.818 L 13.714 53.818 C 16.239 53.818 18.286 51.864 18.286 49.455 L 18.286 40.727 C 18.286 38.318 16.239 36.364 13.714 36.364 Z  M 36.571 36.364 L 27.429 36.364 C 24.904 36.364 22.857 38.318 22.857 40.727 L 22.857 49.455 C 22.857 51.864 24.904 53.818 27.429 53.818 L 36.571 53.818 C 39.096 53.818 41.143 51.864 41.143 49.455 L 41.143 40.727 C 41.143 38.318 39.096 36.364 36.571 36.364 Z  M 59.429 36.364 L 50.286 36.364 C 47.761 36.364 45.714 38.318 45.714 40.727 L 45.714 49.455 C 45.714 51.864 47.761 53.818 50.286 53.818 L 59.429 53.818 C 61.953 53.818 64 51.864 64 49.455 L 64 40.727 C 64 38.318 61.953 36.364 59.429 36.364 Z  M 13.714 10.182 L 4.571 10.182 C 2.047 10.182 0 12.136 0 14.545 L 0 23.273 C 0 25.682 2.047 27.636 4.571 27.636 L 13.714 27.636 C 16.239 27.636 18.286 25.682 18.286 23.273 L 18.286 14.545 C 18.286 12.136 16.239 10.182 13.714 10.182 Z  M 36.571 10.182 L 27.429 10.182 C 24.904 10.182 22.857 12.136 22.857 14.545 L 22.857 23.273 C 22.857 25.682 24.904 27.636 27.429 27.636 L 36.571 27.636 C 39.096 27.636 41.143 25.682 41.143 23.273 L 41.143 14.545 C 41.143 12.136 39.096 10.182 36.571 10.182 Z  M 59.429 10.182 L 50.286 10.182 C 47.761 10.182 45.714 12.136 45.714 14.545 L 45.714 23.273 C 45.714 25.682 47.761 27.636 50.286 27.636 L 59.429 27.636 C 61.953 27.636 64 25.682 64 23.273 L 64 14.545 C 64 12.136 61.953 10.182 59.429 10.182 Z "/></svg>