
<svg viewBox="0 0 64 64"><path d="M 32.986 63.153 C 28.243 63.153 23.934 62.379 20.059 60.834 C 16.679 61.348 2.307 63.587 2.307 63.51 C 5.709 55.8 7.543 51.635 7.809 51.014 C 7.769 50.951 7.729 50.888 7.689 50.824 C 5.233 46.928 4.006 42.483 4.006 37.491 L 4.006 3.153 L 23.275 3.153 L 23.275 37.491 C 23.275 40.901 24.098 43.457 25.741 45.162 C 27.385 46.867 29.799 47.719 32.986 47.719 C 36.174 47.719 38.588 46.857 40.231 45.131 C 41.875 43.388 42.697 40.84 42.697 37.491 L 42.697 3.153 L 61.966 3.153 L 61.966 37.491 C 61.966 42.483 60.749 46.928 58.314 50.824 C 55.857 54.721 52.429 57.744 48.024 59.896 C 43.619 62.066 38.609 63.153 32.986 63.153 Z" /></svg>