<svg viewBox="0 0 320 512"><path transform="rotate(-180 159.99998474121097,256) " d="m177,255.7l136,136c9.4,9.4 9.4,24.6 0,33.9l-22.6,22.6c-9.4,9.4 -24.6,9.4 -33.9,0l-96.5,-96.3l-96.4,96.4c-9.4,9.4 -24.6,9.4 -33.9,0l-22.7,-22.6c-9.4,-9.4 -9.4,-24.6 0,-33.9l136,-136c9.4,-9.5 24.6,-9.5 34,-0.1zm-34,-192l-136,136c-9.4,9.4 -9.4,24.6 0,33.9l22.6,22.6c9.4,9.4 24.6,9.4 33.9,0l96.4,-96.4l96.4,96.4c9.4,9.4 24.6,9.4 33.9,0l22.6,-22.6c9.4,-9.4 9.4,-24.6 0,-33.9l-136,-136c-9.2,-9.4 -24.4,-9.4 -33.8,0z" /></svg>