<?xml version="1.0" encoding="utf-8"?>
<svg viewBox="0 0 64 64" xmlns="http://www.w3.org/2000/svg">
  <path d="M 64 19.038 L 64 16.135 L 59.927 14.934 L 59.613 13.517 L 62.484 10.695 L 60.998 8.048 L 56.855 9.072 L 55.828 8.048 L 56.899 4.202 L 54.17 2.622 L 51.127 5.485 L 49.6 5.048 L 48.599 1.447 L 45.37 1.447 L 44.486 5.048 L 42.755 5.485 L 39.942 2.622 L 37.169 4.12 L 38.327 7.899 L 37.169 9.043 L 33.1 8.022 L 31.529 10.625 L 34.484 13.488 L 34.071 14.907 L 29.999 15.972 L 29.955 18.931 L 34.071 19.952 L 34.415 21.604 L 31.543 24.315 L 33.027 26.84 L 37.257 25.816 L 38.284 26.989 L 37.129 30.657 L 39.971 32.24 L 42.743 29.459 L 44.399 29.851 L 45.356 33.738 L 48.585 33.779 L 49.542 29.851 L 51.2 29.374 L 54.156 32.321 L 57.071 30.672 L 55.814 26.852 L 56.928 25.75 L 61.041 26.948 L 62.513 24.208 L 59.529 21.645 L 59.843 19.992 L 64 19.038 Z M 46.97 25.203 C 42.499 25.203 38.857 21.738 38.857 17.459 C 38.857 13.176 42.484 9.712 46.97 9.712 C 51.456 9.712 55.084 13.176 55.084 17.459 C 55.084 21.752 51.456 25.203 46.97 25.203 Z M 57.3 27.44 L 64 29.415 L 64 34.858 L 56.128 36.685 L 55.543 39.78 L 61.1 44.595 L 58.356 49.761 L 50.641 47.483 L 48.556 49.558 L 50.941 56.717 L 45.469 59.812 L 39.913 54.288 L 36.815 55.19 L 35.014 62.552 L 28.957 62.486 L 27.156 55.175 L 24.055 54.413 L 18.857 59.649 L 13.513 56.688 L 15.686 49.802 L 13.728 47.608 L 5.798 49.531 L 2.985 44.784 L 8.399 39.684 L 7.712 36.574 L 0 34.651 L 0.07 29.075 L 7.712 27.07 L 8.527 24.385 L 2.97 19.012 L 5.929 14.131 L 13.585 16.054 L 15.756 13.912 L 13.585 6.82 L 18.784 3.998 L 24.041 9.371 L 27.284 8.539 L 28.943 1.447 L 34.999 1.447 L 36.657 7.707 L 33.428 6.902 L 32.527 6.672 L 32.055 7.448 L 30.484 10.052 L 30.013 10.817 L 30.671 11.443 L 33.129 13.816 L 33.085 13.953 L 29.684 14.84 L 28.8 15.07 L 28.785 15.943 L 28.756 17.703 C 21.969 19.12 16.855 24.903 16.855 31.815 C 16.855 39.766 23.613 46.23 31.956 46.23 C 39.171 46.23 45.199 41.403 46.7 34.939 L 48.585 34.966 L 49.571 34.98 L 49.798 34.067 L 50.598 30.794 L 50.871 30.712 L 53.312 33.139 L 53.984 33.808 L 54.813 33.342 L 57.728 31.693 L 58.557 31.216 L 58.269 30.331 L 57.3 27.44 Z" fill="#747474"/>
</svg>