
<svg viewBox="0 0 64 64"><path d="M 6.581 45.714 L 38.159 45.714 C 38.362 45.714 38.563 45.667 38.751 45.575 C 38.938 45.483 39.108 45.348 39.252 45.178 C 39.395 45.008 39.509 44.806 39.587 44.583 C 39.664 44.36 39.704 44.122 39.704 43.882 L 39.704 38.404 C 39.704 38.164 39.664 37.925 39.587 37.703 C 39.509 37.48 39.395 37.278 39.252 37.108 C 39.108 36.938 38.938 36.803 38.751 36.711 C 38.563 36.619 38.362 36.571 38.159 36.571 L 6.581 36.571 C 6.378 36.571 6.177 36.619 5.99 36.711 C 5.802 36.803 5.632 36.938 5.489 37.108 C 5.345 37.278 5.231 37.48 5.154 37.703 C 5.076 37.925 5.036 38.164 5.037 38.404 L 5.037 43.882 C 5.036 44.122 5.076 44.36 5.154 44.583 C 5.231 44.806 5.345 45.008 5.489 45.178 C 5.632 45.348 5.802 45.483 5.99 45.575 C 6.177 45.667 6.378 45.714 6.581 45.714 Z M 6.581 9.143 L 38.159 9.143 C 38.362 9.143 38.563 9.096 38.751 9.004 C 38.938 8.912 39.108 8.777 39.252 8.606 C 39.395 8.436 39.509 8.234 39.587 8.012 C 39.664 7.789 39.704 7.551 39.704 7.31 L 39.704 1.833 C 39.704 1.592 39.664 1.354 39.587 1.131 C 39.509 0.909 39.395 0.707 39.252 0.536 C 39.108 0.366 38.938 0.231 38.751 0.139 C 38.563 0.047 38.362 0 38.159 0 L 6.581 0 C 6.378 0 6.177 0.047 5.99 0.139 C 5.802 0.231 5.632 0.366 5.489 0.536 C 5.345 0.707 5.231 0.909 5.154 1.131 C 5.076 1.354 5.036 1.592 5.037 1.833 L 5.037 7.31 C 5.036 7.551 5.076 7.789 5.154 8.012 C 5.231 8.234 5.345 8.436 5.489 8.606 C 5.632 8.777 5.802 8.912 5.99 9.004 C 6.177 9.096 6.378 9.143 6.581 9.143 Z M 57.038 18.286 L 6.962 18.286 C 6.452 18.286 5.962 18.527 5.601 18.955 C 5.239 19.384 5.037 19.965 5.037 20.571 L 5.037 25.143 C 5.037 25.749 5.239 26.33 5.601 26.759 C 5.962 27.188 6.452 27.429 6.962 27.429 L 57.038 27.429 C 57.549 27.429 58.038 27.188 58.399 26.759 C 58.761 26.33 58.963 25.749 58.963 25.143 L 58.963 20.571 C 58.963 19.965 58.761 19.384 58.399 18.955 C 58.038 18.527 57.549 18.286 57.038 18.286 Z M 57.038 54.857 L 6.962 54.857 C 6.452 54.857 5.962 55.098 5.601 55.527 C 5.239 55.955 5.037 56.537 5.037 57.143 L 5.037 61.714 C 5.037 62.32 5.239 62.902 5.601 63.33 C 5.962 63.759 6.452 64 6.962 64 L 57.038 64 C 57.549 64 58.038 63.759 58.399 63.33 C 58.761 62.902 58.963 62.32 58.963 61.714 L 58.963 57.143 C 58.963 56.537 58.761 55.955 58.399 55.527 C 58.038 55.098 57.549 54.857 57.038 54.857 Z" /></svg>