<svg viewBox="0 0 64 64"><path d="M 31.951 29.222 L 53.783 7 C 55.292 5.464 57.732 5.464 59.225 7 L 62.852 10.693 C 64.361 12.229 64.361 14.712 62.852 16.232 L 47.394 31.999 L 62.868 47.751 C 64.377 49.286 64.377 51.77 62.868 53.29 L 59.241 56.999 C 57.732 58.535 55.292 58.535 53.799 56.999 L 31.967 34.777 C 30.442 33.241 30.442 30.758 31.951 29.222 Z M 1.13 34.777 L 22.961 56.999 C 24.47 58.535 26.91 58.535 28.403 56.999 L 32.031 53.306 C 33.54 51.77 33.54 49.286 32.031 47.767 L 16.573 31.999 L 32.047 16.248 C 33.556 14.712 33.556 12.229 32.047 10.709 L 28.419 7 C 26.91 5.464 24.47 5.464 22.978 7 L 1.146 29.222 C -0.379 30.758 -0.379 33.241 1.13 34.777 Z" transform="matrix(-1, 0, 0, -1, 63.999992, 63.999002)"/></svg>