<svg viewBox="0 0 64 64"><path d=" M 62.237 17.754 L 56.475 23.517 C 55.887 24.104 54.937 24.104 54.35 23.517 L 40.474 9.641 C 39.886 9.053 39.886 8.103 40.474 7.516 L 46.237 1.753 C 48.574 -0.584 52.374 -0.584 54.725 1.753 L 62.237 9.266 C 64.588 11.604 64.588 15.404 62.237 17.754 Z  M 35.524 12.466 L 2.697 45.292 L 0.047 60.481 C -0.315 62.531 1.472 64.306 3.522 63.956 L 18.71 61.293 L 51.537 28.467 C 52.124 27.879 52.124 26.929 51.537 26.342 L 37.661 12.466 C 37.061 11.879 36.111 11.879 35.524 12.466 Z  M 15.51 42.48 C 14.823 41.792 14.823 40.692 15.51 40.005 L 34.761 20.754 C 35.449 20.066 36.549 20.066 37.236 20.754 C 37.924 21.441 37.924 22.542 37.236 23.229 L 17.985 42.48 C 17.298 43.167 16.198 43.167 15.51 42.48 Z  M 10.998 52.993 L 16.998 52.993 L 16.998 57.53 L 8.935 58.943 L 5.047 55.055 L 6.46 46.992 L 10.998 46.992 L 10.998 52.993 Z " /></svg>