<svg viewBox="0 0 16 16"><path d="M 8.683 7.988 L 14.141 13.446 C 14.517 13.823 14.517 14.433 14.141 14.806 L 13.233 15.713 C 12.856 16.091 12.246 16.091 11.873 15.713 L 8 11.849 L 4.131 15.717 C 3.755 16.095 3.145 16.095 2.771 15.717 L 1.86 14.81 C 1.483 14.433 1.483 13.823 1.86 13.45 L 7.318 7.992 C 7.695 7.611 8.306 7.611 8.683 7.988 Z M 7.318 0.283 L 1.86 5.741 C 1.483 6.118 1.483 6.729 1.86 7.101 L 2.767 8.008 C 3.145 8.386 3.755 8.386 4.127 8.008 L 7.996 4.14 L 11.865 8.008 C 12.242 8.386 12.852 8.386 13.225 8.008 L 14.133 7.101 C 14.509 6.724 14.509 6.114 14.133 5.741 L 8.675 0.283 C 8.306 -0.094 7.695 -0.094 7.318 0.283 Z" transform="matrix(0, -1, 1, 0, -0.00025, 16.0005)"/></svg>