<svg viewBox="0 0 19 18"><path d="M15.2277 1.08999L10.0726 5.93042L5.45221 1.00962C4.88525 0.405797 3.91244 0.397798 3.27987 0.991759L2.13428 2.06741C1.50171 2.66137 1.44849 3.63275 2.01546 4.23657L6.63587 9.15738L1.48074 13.9978C0.848166 14.5918 0.794954 15.5631 1.36192 16.167L2.38868 17.2605C2.95564 17.8643 3.92844 17.8723 4.56102 17.2783L9.71614 12.4379L14.3366 17.3587C14.9035 17.9625 15.8763 17.9705 16.5089 17.3766L17.6545 16.3009C18.2871 15.707 18.3403 14.7356 17.7733 14.1318L13.1529 9.21096L18.308 4.37053C18.9406 3.77657 18.9938 2.80519 18.4268 2.20136L17.4001 1.10785C16.8331 0.504029 15.8603 0.496032 15.2277 1.08999Z"/></svg>
