<svg viewBox="0 0 64 64"><path d="M 6.856 58 C 6.856 59.592 7.521 61.117 8.699 62.243 C 9.878 63.368 11.475 64 13.145 64 L 50.856 64 C 52.526 64 54.123 63.368 55.302 62.243 C 56.48 61.117 57.145 59.592 57.145 58 L 57.145 16 L 6.856 16 L 6.856 58 Z M 42.478 26 C 42.478 25.47 42.696 24.96 43.091 24.587 C 43.483 24.211 44.016 24 44.571 24 C 45.128 24 45.662 24.211 46.054 24.587 C 46.446 24.96 46.667 25.47 46.667 26 L 46.667 54 C 46.667 54.531 46.446 55.04 46.054 55.414 C 45.662 55.789 45.128 56 44.571 56 C 44.016 56 43.483 55.789 43.091 55.414 C 42.696 55.04 42.478 54.531 42.478 54 L 42.478 26 Z M 29.904 26 C 29.904 25.47 30.126 24.96 30.518 24.587 C 30.912 24.211 31.446 24 32 24 C 32.555 24 33.088 24.211 33.483 24.587 C 33.875 24.96 34.097 25.47 34.097 26 L 34.097 54 C 34.097 54.531 33.875 55.04 33.483 55.414 C 33.088 55.789 32.555 56 32 56 C 31.446 56 30.912 55.789 30.518 55.414 C 30.126 55.04 29.904 54.531 29.904 54 L 29.904 26 Z M 17.334 26 C 17.334 25.47 17.555 24.96 17.947 24.587 C 18.339 24.211 18.873 24 19.43 24 C 19.985 24 20.517 24.211 20.91 24.587 C 21.305 24.96 21.523 25.47 21.523 26 L 21.523 54 C 21.523 54.531 21.305 55.04 20.91 55.414 C 20.517 55.789 19.985 56 19.43 56 C 18.873 56 18.339 55.789 17.947 55.414 C 17.555 55.04 17.334 54.531 17.334 54 L 17.334 26 Z M 59.237 4 L 43.523 4 L 42.294 1.664 C 42.032 1.162 41.63 0.742 41.134 0.448 C 40.635 0.155 40.062 0 39.478 0 L 24.509 0 C 23.925 -0.003 23.355 0.152 22.859 0.448 C 22.363 0.742 21.963 1.162 21.707 1.664 L 20.478 4 L 4.763 4 C 4.206 4 3.673 4.21 3.28 4.587 C 2.888 4.96 2.667 5.47 2.667 6 L 2.667 10 C 2.667 10.531 2.888 11.04 3.28 11.413 C 3.673 11.789 4.206 12 4.763 12 L 59.237 12 C 59.795 12 60.328 11.789 60.721 11.413 C 61.113 11.04 61.334 10.531 61.334 10 L 61.334 6 C 61.334 5.47 61.113 4.96 60.721 4.587 C 60.328 4.21 59.795 4 59.237 4 Z"/></svg>