<?xml version="1.0" encoding="utf-8"?>
<svg viewBox="0 0 240 64" xmlns="http://www.w3.org/2000/svg">
  <g>
    <path d="M 100.822 40.065 C 100.867 39.682 101.119 39.245 101.477 38.997 C 101.805 38.769 102.299 38.558 102.862 38.39 C 103.964 38.058 105.543 37.803 107.394 37.619 C 111.087 37.253 116.014 37.15 120.921 37.242 C 125.828 37.334 130.749 37.62 134.435 38.032 C 136.282 38.238 137.843 38.479 138.935 38.743 C 139.488 38.877 139.961 39.028 140.28 39.184 C 140.45 39.267 140.628 39.381 140.737 39.487 C 140.867 39.614 140.849 39.706 140.849 39.706 C 140.896 39.768 140.257 40.434 140.279 40.51 C 140.25 40.468 140.046 40.182 139.842 40.083 C 139.587 39.959 139.218 39.84 138.7 39.715 C 137.649 39.461 136.15 39.229 134.324 39.026 C 130.664 38.617 125.79 38.333 120.902 38.242 C 117.709 38.182 114.525 38.205 111.682 38.328 C 112.25 40.583 112.304 42.424 111.993 43.728 C 111.814 44.474 111.486 45.128 111.095 45.563 C 110.692 46.011 110.112 46.327 109.558 46.412 C 108.485 46.577 107.114 45.983 105.965 44.745 C 105.401 44.138 104.834 43.334 104.332 42.383 C 104.082 41.909 103.838 41.381 103.613 40.82 C 103.462 40.441 103.235 39.761 103.104 39.361 C 102.619 39.509 102.285 39.653 102.047 39.819 C 101.831 39.968 101.777 39.969 101.822 40.065 Z M 107.493 38.614 C 106.155 38.747 105 38.912 104.069 39.114 C 104.125 39.291 104.188 39.487 104.232 39.615 C 104.332 39.906 104.434 40.18 104.542 40.448 C 104.756 40.985 104.979 41.466 105.216 41.916 C 105.689 42.811 106.18 43.507 106.697 44.065 C 107.711 45.157 108.597 45.548 109.406 45.424 C 109.793 45.365 110.06 45.219 110.352 44.894 C 110.655 44.558 110.868 44.131 111.02 43.496 C 111.311 42.278 111.264 40.598 110.665 38.378 C 109.536 38.439 108.471 38.517 107.493 38.614 Z M 140.279 40.51 C 140.281 40.513 140.282 40.515 140.282 40.515 C 140.28 40.514 140.279 40.512 140.279 40.51 Z M 111.256 26.156 L 103.963 18.863 L 96.67 26.156 L 95.256 24.742 L 102.549 17.449 L 95.256 10.156 L 96.67 8.742 L 103.963 16.035 L 111.256 8.742 L 112.67 10.156 L 105.377 17.449 L 112.67 24.742 Z M 143.644 26.156 L 136.351 18.863 L 129.058 26.156 L 127.644 24.742 L 134.937 17.449 L 127.644 10.156 L 129.058 8.742 L 136.351 16.035 L 143.644 8.742 L 145.058 10.156 L 137.765 17.449 L 145.058 24.742 Z M 144.014 0 L 96.016 0 C 91.604 0 88.017 3.587 88.017 7.999 L 88.017 43.997 C 88.017 48.41 91.604 51.997 96.016 51.997 L 108.016 51.997 L 108.016 62.496 C 108.016 63.721 109.416 64.434 110.403 63.709 L 126.015 51.997 L 144.014 51.997 C 148.426 51.997 152.014 48.41 152.014 43.997 L 152.014 7.999 C 152.014 3.587 148.426 0 144.014 0 Z M 194.415 64 L 194.415 48.408 L 167.916 48.408 L 167.916 35.015 L 193.366 0 L 214.79 0 L 214.79 35.208 L 223.977 35.208 L 223.977 48.502 L 214.79 48.502 L 214.79 64 L 194.415 64 Z M 181.979 35.208 L 194.415 35.208 L 194.415 16.262 L 181.979 35.208 Z M 42.521 64 L 42.521 48.408 L 16.022 48.408 L 16.022 35.015 L 41.472 0 L 62.896 0 L 62.896 35.208 L 72.083 35.208 L 72.083 48.502 L 62.896 48.502 L 62.896 64 L 42.521 64 Z M 30.085 35.208 L 42.521 35.208 L 42.521 16.262 L 30.085 35.208 Z" style=""/>
  </g>
  <path d="M 258.335 227.449 L 274.335 243.449" style="stroke-width: 2px;" transform="matrix(-1, 0, 0, -1, 532.669983, 470.89801)"/>
  <path d="M 266.335 237.57 L 259.042 244.863 L 256.921 242.742 L 264.214 235.449 L 256.921 228.156 L 259.042 226.035 L 266.335 233.328 L 273.628 226.035 L 275.749 228.156 L 268.456 235.449 L 275.749 242.742 L 273.628 244.863 Z M 274.335 242.742 L 267.042 235.449 L 274.335 228.156 L 273.628 227.449 L 266.335 234.742 L 259.042 227.449 L 258.335 228.156 L 265.628 235.449 L 258.335 242.742 L 259.042 243.449 L 266.335 236.156 L 273.628 243.449 Z" style="fill: none;"/>
  <path d="M 258.335 243.449 L 274.335 227.449" style="stroke-width: 2px;" transform="matrix(-1, 0, 0, -1, 532.669983, 470.89801)"/>
  <path style="fill: none;" d="M 231.306 258.065 C 231.306 254.235 270.485 255.7 270.485 258.065 M 233.449 256.857 C 236.453 267.041 243.981 265.887 240.977 255.703"/>
  <path style="fill: rgb(216, 216, 216); stroke: rgb(0, 0, 0);" d="M 284.221 260.813"/>
</svg>