<svg viewBox="0 0 64 64"><path d=" M 37.565 62.725 L 37.565 62.725 Q 31.345 62.725 25.955 60.593 C 25.868 60.587 7.498 63.46 7.498 63.373 Q 13.048 50.793 13.034 50.796 C 12.228 49.735 11.484 48.612 10.801 47.425 L 10.801 47.425 L 10.801 47.425 Q 6.706 40.314 6.706 31.694 L 6.706 31.694 L 6.706 31.694 Q 6.706 22.902 10.671 15.834 L 10.671 15.834 L 10.671 15.834 Q 14.636 8.766 21.532 4.758 L 21.532 4.758 L 21.532 4.758 Q 28.428 0.75 37.047 0.75 L 37.047 0.75 L 37.047 0.75 Q 41.702 0.75 46.184 1.871 L 46.184 1.871 L 46.184 1.871 Q 50.666 2.991 53.856 5.06 L 53.856 5.06 L 51.528 18.42 L 51.528 18.42 Q 45.322 16.093 40.323 16.093 L 40.323 16.093 L 40.323 16.093 Q 33.427 16.093 29.721 20.101 L 29.721 20.101 L 29.721 20.101 Q 26.014 24.109 26.014 31.608 L 26.014 31.608 L 26.014 31.608 Q 26.014 38.935 29.936 43.029 L 29.936 43.029 L 29.936 43.029 Q 33.858 47.123 40.84 47.123 L 40.84 47.123 L 40.84 47.123 Q 43.512 47.123 45.839 46.606 L 45.839 46.606 L 45.839 46.606 Q 48.167 46.089 51.528 44.71 L 51.528 44.71 L 53.942 58.329 L 53.942 58.329 Q 46.443 62.725 37.565 62.725 L 37.565 62.725 Z " /></svg>